<?xml version="1.0" encoding="UTF-8" standalone="no"?>
<!DOCTYPE svg PUBLIC "-//W3C//DTD SVG 1.1//EN"
 "http://www.w3.org/Graphics/SVG/1.1/DTD/svg11.dtd">
<!-- Generated by graphviz version 2.26.3 (20100126.1600)
 -->
<!-- Title: PowerSpeed Pages: 1 -->
<svg width="645pt" height="514pt"
 viewBox="0.00 0.00 645.00 514.00" xmlns="http://www.w3.org/2000/svg" xmlns:xlink="http://www.w3.org/1999/xlink">
<g id="graph1" class="graph" transform="scale(1 1) rotate(0) translate(4 510)">
<title>PowerSpeed</title>
<polygon fill="white" stroke="white" points="-4,5 -4,-510 642,-510 642,5 -4,5"/>
<!-- 0 -->
<g id="node1" class="node"><title>0</title>
<a xlink:title="{&#39;SpeedControl&#39;: 0, &#39;PowerSwitch&#39;: {&#39;power&#39;: False}}">
<ellipse fill="lightgray" stroke="black" cx="328" cy="-483" rx="27" ry="18.3848"/>
<ellipse fill="none" stroke="black" cx="328" cy="-483" rx="31" ry="22.3848"/>
<text text-anchor="middle" x="328" y="-479.4" font-family="Times Roman,serif" font-size="14.00">0</text>
</a>
</g>
<!-- 1 -->
<g id="node2" class="node"><title>1</title>
<a xlink:title="{&#39;SpeedControl&#39;: 0, &#39;PowerSwitch&#39;: {&#39;power&#39;: True}}">
<ellipse fill="white" stroke="black" cx="185" cy="-387" rx="27" ry="18.3848"/>
<text text-anchor="middle" x="185" y="-383.4" font-family="Times Roman,serif" font-size="14.00">1</text>
</a>
</g>
<!-- 0&#45;&gt;1 -->
<g id="edge2" class="edge"><title>0&#45;&gt;1</title>
<a xlink:title="PowerOn()">
<path fill="none" stroke="black" d="M297.482,-478.475C259.952,-472.22 199.541,-459.667 186,-442 180.302,-434.565 178.823,-424.754 179.167,-415.478"/>
<polygon fill="black" stroke="black" points="182.663,-415.693 180.203,-405.388 175.7,-414.979 182.663,-415.693"/>
</a>
<text text-anchor="middle" x="223.5" y="-429.4" font-family="Times Roman,serif" font-size="14.00">PowerOn()</text>
</g>
<!-- 2 -->
<g id="node3" class="node"><title>2</title>
<a xlink:title="{&#39;SpeedControl&#39;: 1, &#39;PowerSwitch&#39;: {&#39;power&#39;: False}}">
<ellipse fill="white" stroke="black" cx="292" cy="-203" rx="27" ry="18.3848"/>
<text text-anchor="middle" x="292" y="-199.4" font-family="Times Roman,serif" font-size="14.00">2</text>
</a>
</g>
<!-- 0&#45;&gt;2 -->
<g id="edge4" class="edge"><title>0&#45;&gt;2</title>
<a xlink:title="IncrementSpeed()">
<path fill="none" stroke="black" d="M346.57,-464.578C351.975,-458.012 357.18,-450.197 360,-442 362.238,-435.494 375.86,-277.082 354,-240 347.585,-229.117 336.611,-221.069 325.664,-215.31"/>
<polygon fill="black" stroke="black" points="327.109,-212.122 316.574,-210.999 324.109,-218.446 327.109,-212.122"/>
</a>
<text text-anchor="middle" x="428" y="-337.4" font-family="Times Roman,serif" font-size="14.00">IncrementSpeed()</text>
</g>
<!-- 1&#45;&gt;0 -->
<g id="edge6" class="edge"><title>1&#45;&gt;0</title>
<a xlink:title="PowerOff()">
<path fill="none" stroke="black" d="M208.492,-396.475C223.978,-403.186 244.389,-412.937 261,-424 269.404,-429.597 286.608,-444.779 301.478,-458.34"/>
<polygon fill="black" stroke="black" points="299.247,-461.043 308.982,-465.224 303.979,-455.885 299.247,-461.043"/>
</a>
<text text-anchor="middle" x="320" y="-429.4" font-family="Times Roman,serif" font-size="14.00">PowerOff()</text>
</g>
<!-- 3 -->
<g id="node4" class="node"><title>3</title>
<a xlink:title="{&#39;SpeedControl&#39;: 1, &#39;PowerSwitch&#39;: {&#39;power&#39;: True}}">
<ellipse fill="white" stroke="black" cx="185" cy="-295" rx="27" ry="18.3848"/>
<text text-anchor="middle" x="185" y="-291.4" font-family="Times Roman,serif" font-size="14.00">3</text>
</a>
</g>
<!-- 1&#45;&gt;3 -->
<g id="edge8" class="edge"><title>1&#45;&gt;3</title>
<a xlink:title="IncrementSpeed()">
<path fill="none" stroke="black" d="M185,-368.382C185,-355.538 185,-338.216 185,-323.627"/>
<polygon fill="black" stroke="black" points="188.5,-323.59 185,-313.59 181.5,-323.59 188.5,-323.59"/>
</a>
<text text-anchor="middle" x="247" y="-337.4" font-family="Times Roman,serif" font-size="14.00">IncrementSpeed()</text>
</g>
<!-- 2&#45;&gt;3 -->
<g id="edge10" class="edge"><title>2&#45;&gt;3</title>
<a xlink:title="PowerOn()">
<path fill="none" stroke="black" d="M285.474,-221.21C280.522,-232.927 272.725,-247.813 262,-258 250.03,-269.37 233.912,-277.847 219.516,-283.798"/>
<polygon fill="black" stroke="black" points="217.96,-280.647 209.896,-287.519 220.485,-287.176 217.96,-280.647"/>
</a>
<text text-anchor="middle" x="312.5" y="-245.4" font-family="Times Roman,serif" font-size="14.00">PowerOn()</text>
</g>
<!-- 4 -->
<g id="node5" class="node"><title>4</title>
<a xlink:title="{&#39;SpeedControl&#39;: 2, &#39;PowerSwitch&#39;: {&#39;power&#39;: False}}">
<ellipse fill="white" stroke="black" cx="297" cy="-111" rx="27" ry="18.3848"/>
<text text-anchor="middle" x="297" y="-107.4" font-family="Times Roman,serif" font-size="14.00">4</text>
</a>
</g>
<!-- 2&#45;&gt;4 -->
<g id="edge12" class="edge"><title>2&#45;&gt;4</title>
<a xlink:title="IncrementSpeed()">
<path fill="none" stroke="black" d="M293.012,-184.382C293.71,-171.538 294.651,-154.216 295.444,-139.627"/>
<polygon fill="black" stroke="black" points="298.942,-139.765 295.99,-129.59 291.952,-139.385 298.942,-139.765"/>
</a>
<text text-anchor="middle" x="356" y="-153.4" font-family="Times Roman,serif" font-size="14.00">IncrementSpeed()</text>
</g>
<!-- 3&#45;&gt;2 -->
<g id="edge14" class="edge"><title>3&#45;&gt;2</title>
<a xlink:title="PowerOff()">
<path fill="none" stroke="black" d="M178.573,-276.78C175.712,-265.205 174.466,-250.483 182,-240 190.849,-227.687 227.318,-217.062 255.87,-210.397"/>
<polygon fill="black" stroke="black" points="256.977,-213.736 265.965,-208.125 255.44,-206.906 256.977,-213.736"/>
</a>
<text text-anchor="middle" x="221" y="-245.4" font-family="Times Roman,serif" font-size="14.00">PowerOff()</text>
</g>
<!-- 5 -->
<g id="node6" class="node"><title>5</title>
<a xlink:title="{&#39;SpeedControl&#39;: 2, &#39;PowerSwitch&#39;: {&#39;power&#39;: True}}">
<ellipse fill="white" stroke="black" cx="170" cy="-19" rx="27" ry="18.3848"/>
<text text-anchor="middle" x="170" y="-15.4" font-family="Times Roman,serif" font-size="14.00">5</text>
</a>
</g>
<!-- 3&#45;&gt;5 -->
<g id="edge16" class="edge"><title>3&#45;&gt;5</title>
<a xlink:title="IncrementSpeed()">
<path fill="none" stroke="black" d="M178.142,-276.784C176.173,-270.871 174.229,-264.228 173,-258 158.272,-183.343 163.105,-93.0068 167.032,-47.7627"/>
<polygon fill="black" stroke="black" points="170.543,-47.8035 167.973,-37.525 163.572,-47.1624 170.543,-47.8035"/>
</a>
<text text-anchor="middle" x="226" y="-153.4" font-family="Times Roman,serif" font-size="14.00">IncrementSpeed()</text>
</g>
<!-- 4&#45;&gt;0 -->
<g id="edge20" class="edge"><title>4&#45;&gt;0</title>
<a xlink:title="IncrementSpeed()">
<path fill="none" stroke="black" d="M323.055,-116.336C380.504,-128.849 513,-162.138 513,-203 513,-387 513,-387 513,-387 513,-451.419 423.533,-472.668 369.033,-479.636"/>
<polygon fill="black" stroke="black" points="368.491,-476.175 358.965,-480.813 369.304,-483.128 368.491,-476.175"/>
</a>
<text text-anchor="middle" x="575" y="-291.4" font-family="Times Roman,serif" font-size="14.00">IncrementSpeed()</text>
</g>
<!-- 4&#45;&gt;5 -->
<g id="edge18" class="edge"><title>4&#45;&gt;5</title>
<a xlink:title="PowerOn()">
<path fill="none" stroke="black" d="M270.05,-107.792C246.679,-103.688 213.342,-94.4697 192,-74 184.508,-66.8145 179.504,-56.7449 176.191,-47.1825"/>
<polygon fill="black" stroke="black" points="179.528,-46.1261 173.316,-37.5434 172.82,-48.1266 179.528,-46.1261"/>
</a>
<text text-anchor="middle" x="229.5" y="-61.4" font-family="Times Roman,serif" font-size="14.00">PowerOn()</text>
</g>
<!-- 5&#45;&gt;1 -->
<g id="edge24" class="edge"><title>5&#45;&gt;1</title>
<a xlink:title="IncrementSpeed()">
<path fill="none" stroke="black" d="M143.063,-21.339C95.1276,-27.1358 0,-46.7352 0,-111 0,-295 0,-295 0,-295 0,-328.109 96.1982,-361.307 149.857,-377.249"/>
<polygon fill="black" stroke="black" points="149.084,-380.67 159.664,-380.112 151.046,-373.95 149.084,-380.67"/>
</a>
<text text-anchor="middle" x="62" y="-199.4" font-family="Times Roman,serif" font-size="14.00">IncrementSpeed()</text>
</g>
<!-- 5&#45;&gt;4 -->
<g id="edge22" class="edge"><title>5&#45;&gt;4</title>
<a xlink:title="PowerOff()">
<path fill="none" stroke="black" d="M196.498,-23.83C217.628,-28.8277 246.909,-38.4523 267,-56 275.417,-63.3517 281.911,-73.6622 286.668,-83.3721"/>
<polygon fill="black" stroke="black" points="283.582,-85.0451 290.855,-92.7499 289.974,-82.1917 283.582,-85.0451"/>
</a>
<text text-anchor="middle" x="318" y="-61.4" font-family="Times Roman,serif" font-size="14.00">PowerOff()</text>
</g>
</g>
</svg>
