<?xml version="1.0" encoding="UTF-8" standalone="no"?>
<!DOCTYPE svg PUBLIC "-//W3C//DTD SVG 1.1//EN"
 "http://www.w3.org/Graphics/SVG/1.1/DTD/svg11.dtd">
<!-- Generated by graphviz version 2.26.3 (20100126.1600)
 -->
<!-- Title: PowerSwitchFSM Pages: 1 -->
<svg width="163pt" height="146pt"
 viewBox="0.00 0.00 162.60 146.00" xmlns="http://www.w3.org/2000/svg" xmlns:xlink="http://www.w3.org/1999/xlink">
<g id="graph1" class="graph" transform="scale(1 1) rotate(0) translate(4 142)">
<title>PowerSwitchFSM</title>
<polygon fill="white" stroke="white" points="-4,5 -4,-142 159.602,-142 159.602,5 -4,5"/>
<!-- 0 -->
<g id="node1" class="node"><title>0</title>
<a xlink:title="{&#39;PowerSwitch&#39;: {&#39;power&#39;: False}}">
<ellipse fill="lightgray" stroke="black" cx="50.6025" cy="-115" rx="27" ry="18.3848"/>
<ellipse fill="none" stroke="black" cx="50.6025" cy="-115" rx="31" ry="22.3848"/>
<text text-anchor="middle" x="50.6025" y="-111.4" font-family="Times Roman,serif" font-size="14.00">0</text>
</a>
</g>
<!-- 1 -->
<g id="node2" class="node"><title>1</title>
<a xlink:title="{&#39;PowerSwitch&#39;: {&#39;power&#39;: True}}">
<ellipse fill="white" stroke="black" cx="50.6025" cy="-19" rx="27" ry="18.3848"/>
<text text-anchor="middle" x="50.6025" y="-15.4" font-family="Times Roman,serif" font-size="14.00">1</text>
</a>
</g>
<!-- 0&#45;&gt;1 -->
<g id="edge2" class="edge"><title>0&#45;&gt;1</title>
<a xlink:title="PowerOn()">
<path fill="none" stroke="black" d="M26.2449,-100.7C17.0477,-93.8919 7.60347,-84.8487 2.60248,-74 -0.746621,-66.7348 -0.927927,-63.1789 2.60248,-56 6.54053,-47.9922 13.1377,-41.2292 20.1998,-35.7653"/>
<polygon fill="black" stroke="black" points="22.3549,-38.5298 28.5721,-29.9509 18.3621,-32.7803 22.3549,-38.5298"/>
</a>
<text text-anchor="middle" x="40.1025" y="-61.4" font-family="Times Roman,serif" font-size="14.00">PowerOn()</text>
</g>
<!-- 1&#45;&gt;0 -->
<g id="edge4" class="edge"><title>1&#45;&gt;0</title>
<a xlink:title="PowerOff()">
<path fill="none" stroke="black" d="M65.4294,-34.6873C70.2909,-40.8482 75.088,-48.2885 77.6025,-56 80.9898,-66.3884 77.9338,-77.375 72.831,-87.015"/>
<polygon fill="black" stroke="black" points="69.6992,-85.4269 67.4549,-95.7813 75.6664,-89.0864 69.6992,-85.4269"/>
</a>
<text text-anchor="middle" x="116.602" y="-61.4" font-family="Times Roman,serif" font-size="14.00">PowerOff()</text>
</g>
</g>
</svg>
