<?xml version="1.0" encoding="UTF-8" standalone="no"?>
<!DOCTYPE svg PUBLIC "-//W3C//DTD SVG 1.1//EN"
 "http://www.w3.org/Graphics/SVG/1.1/DTD/svg11.dtd">
<!-- Generated by graphviz version 2.26.3 (20100126.1600)
 -->
<!-- Title: SpeedControl Pages: 1 -->
<svg width="300pt" height="238pt"
 viewBox="0.00 0.00 300.00 238.00" xmlns="http://www.w3.org/2000/svg" xmlns:xlink="http://www.w3.org/1999/xlink">
<g id="graph1" class="graph" transform="scale(1 1) rotate(0) translate(4 234)">
<title>SpeedControl</title>
<polygon fill="white" stroke="white" points="-4,5 -4,-234 297,-234 297,5 -4,5"/>
<!-- 0 -->
<g id="node1" class="node"><title>0</title>
<ellipse fill="lightgray" stroke="black" cx="96" cy="-207" rx="27" ry="18.3848"/>
<ellipse fill="none" stroke="black" cx="96" cy="-207" rx="31" ry="22.3848"/>
<text text-anchor="middle" x="96" y="-203.4" font-family="Times Roman,serif" font-size="14.00">0</text>
</g>
<!-- 1 -->
<g id="node2" class="node"><title>1</title>
<ellipse fill="white" stroke="black" cx="27" cy="-111" rx="27" ry="18.3848"/>
<text text-anchor="middle" x="27" y="-107.4" font-family="Times Roman,serif" font-size="14.00">1</text>
</g>
<!-- 0&#45;&gt;1 -->
<g id="edge2" class="edge"><title>0&#45;&gt;1</title>
<a xlink:title="IncrementSpeed()">
<path fill="none" stroke="black" d="M67.5686,-197.505C53.0242,-191.052 36.6099,-180.927 28,-166 23.4728,-158.151 22.1638,-148.566 22.3095,-139.609"/>
<polygon fill="black" stroke="black" points="25.8083,-139.753 23.0431,-129.525 18.8267,-139.245 25.8083,-139.753"/>
</a>
<text text-anchor="middle" x="90" y="-153.4" font-family="Times Roman,serif" font-size="14.00">IncrementSpeed()</text>
</g>
<!-- 2 -->
<g id="node3" class="node"><title>2</title>
<ellipse fill="white" stroke="black" cx="96" cy="-19" rx="27" ry="18.3848"/>
<text text-anchor="middle" x="96" y="-15.4" font-family="Times Roman,serif" font-size="14.00">2</text>
</g>
<!-- 1&#45;&gt;2 -->
<g id="edge4" class="edge"><title>1&#45;&gt;2</title>
<a xlink:title="IncrementSpeed()">
<path fill="none" stroke="black" d="M22.9079,-92.6312C21.399,-81.2804 21.4116,-66.8594 28,-56 35.4441,-43.7302 48.509,-35.2588 61.2106,-29.5518"/>
<polygon fill="black" stroke="black" points="62.7846,-32.6912 70.7536,-25.7094 60.1701,-26.1977 62.7846,-32.6912"/>
</a>
<text text-anchor="middle" x="90" y="-61.4" font-family="Times Roman,serif" font-size="14.00">IncrementSpeed()</text>
</g>
<!-- 2&#45;&gt;0 -->
<g id="edge6" class="edge"><title>2&#45;&gt;0</title>
<a xlink:title="IncrementSpeed()">
<path fill="none" stroke="black" d="M119.564,-28.0729C131.587,-34.0498 145.1,-43.1719 152,-56 175.158,-99.0563 174.115,-122.399 152,-166 147.258,-175.349 139.271,-183.079 130.793,-189.21"/>
<polygon fill="black" stroke="black" points="128.697,-186.4 122.253,-194.81 132.535,-192.254 128.697,-186.4"/>
</a>
<text text-anchor="middle" x="230" y="-107.4" font-family="Times Roman,serif" font-size="14.00">IncrementSpeed()</text>
</g>
</g>
</svg>
